Coordinates
version=1
nRows=24
nColumns=24
inDegrees=yes

Units are S.I. units (second, meters, Newtons, ...)
Angles are in degrees.

endheader
time	pelvis_tilt	pelvis_list	pelvis_rotation	pelvis_tx	pelvis_ty	pelvis_tz	hip_flexion_r	hip_adduction_r	hip_rotation_r	knee_angle_r	ankle_angle_r	subtalar_angle_r	mtp_angle_r	hip_flexion_l	hip_adduction_l	hip_rotation_l	knee_angle_l	ankle_angle_l	subtalar_angle_l	mtp_angle_l	lumbar_extension	lumbar_bending	lumbar_rotation
      0.55000000	     -0.85600145	      2.70547519	     -0.66053628	     -0.81382215	      1.05274669	      0.32557698	     22.04090841	      0.40987266	     -9.55019397	     -0.20974555	      2.21864161	     -1.96192461	     -0.15561607	    -13.62920819	      7.00103476	     -2.87527505	     -6.27357921	     11.19514632	      3.26250811	      0.12879449	      5.33389118	     -0.43869162	     -2.65791889
      0.55416667	     -0.87301977	      2.73695439	     -0.70054549	     -0.80837194	      1.05233008	      0.32580011	     21.99468149	      0.48021790	     -9.41073119	     -0.33247372	      2.16646303	     -1.86094148	     -0.16282652	    -13.70842775	      7.02292014	     -2.92074100	     -6.71134456	     11.14031289	      3.23655714	      0.11264197	      5.33765861	     -0.45554593	     -2.73393085
      0.55833333	     -0.89822650	      2.71611488	     -0.86438989	     -0.80263580	      1.05186569	      0.32618910	     21.95909882	      0.64875999	     -9.18205354	     -0.53075921	      2.12494945	     -1.69329096	     -0.18635172	    -13.81421186	      7.01401294	     -3.10421527	     -7.09049069	     11.05301225	      3.22735255	      0.06319488	      5.34763667	     -0.50736531	     -2.94982069
      0.56250000	     -0.90968566	      2.70287328	     -0.87789340	     -0.79695374	      1.05152954	      0.32633319	     21.89865184	      0.74301064	     -9.10918257	     -0.77879060	      2.10769216	     -1.68236789	     -0.19055006	    -13.90194500	      6.98152870	     -3.06206914	     -7.54410859	     11.01595462	      3.23225489	      0.05470785	      5.39815040	     -0.47221226	     -2.97707238
      0.56666667	     -0.91905840	      2.68103573	     -0.89160663	     -0.79120507	      1.05121770	      0.32647070	     21.83117995	      0.84110310	     -9.00504569	     -1.06788390	      2.07428636	     -1.66714321	     -0.19396283	    -13.97947540	      6.93678306	     -3.04276826	     -8.03015666	     10.96788101	      3.23609336	      0.04724291	      5.44422326	     -0.43008675	     -3.00540745
      0.57083333	     -0.92399426	      2.65802199	     -0.91514095	     -0.78544635	      1.05093919	      0.32661088	     21.76113592	      0.93682661	     -8.86382880	     -1.39246936	      2.01567210	     -1.65280397	     -0.19741486	    -14.03934357	      6.89063426	     -3.05668751	     -8.55833974	     10.90250648	      3.24787590	      0.03962021	      5.48612110	     -0.37604754	     -3.04053596
      0.57500000	     -0.95463478	      2.62080343	     -1.05868355	     -0.77958041	      1.05059759	      0.32699228	     21.71846153	      1.09960004	     -8.48637133	     -1.73587829	      1.79427633	     -1.71173547	     -0.21220886	    -14.05538702	      6.84194336	     -3.37618041	     -9.10169654	     10.70946154	      3.38598112	      0.01292758	      5.45551766	     -0.30235082	     -3.17713627
      0.57916667	     -0.92311560	      2.59503014	     -1.06914287	     -0.77377252	      1.05043949	      0.32707398	     21.60286594	      1.17762695	     -8.33996075	     -2.10923683	      1.71974848	     -1.73886054	     -0.21466030	    -14.12509001	      6.78752121	     -3.35047465	     -9.69216281	     10.64750513	      3.41844322	      0.00937933	      5.54601099	     -0.26247668	     -3.18959985
      0.58333333	     -0.92172064	      2.51682985	     -1.22639531	     -0.76777616	      1.05021947	      0.32779380	     21.44880899	      1.42027075	     -7.52220464	     -2.34505196	      1.20873433	     -2.61196012	     -0.25126674	    -14.13095850	      6.64764952	     -3.88611184	    -10.33567214	     10.47538960	      4.03678684	     -0.01478495	      5.64291874	     -0.28561332	     -3.30149014
      0.58750000	     -0.90455237	      2.49816599	     -1.23672107	     -0.76198301	      1.05011345	      0.32785486	     21.35628663	      1.47648449	     -7.38916796	     -2.76654452	      1.11042816	     -2.62056202	     -0.25261096	    -14.13588103	      6.59631321	     -3.86554944	    -11.00943333	     10.39959439	      4.04535088	     -0.01483661	      5.66008272	     -0.18131723	     -3.31390922
      0.59166667	     -0.88721274	      2.46721095	     -1.23429410	     -0.75613062	      1.05005844	      0.32794495	     21.24385712	      1.54137233	     -7.21218417	     -3.16444266	      0.94751882	     -2.62456624	     -0.25381042	    -14.11398733	      6.51701747	     -3.92046950	    -11.74075587	     10.27032889	      4.07002801	     -0.01379956	      5.67587683	     -0.08935334	     -3.32886828
      0.59583333	     -0.90077794	      2.35532270	     -1.45525087	     -0.74996718	      1.04990460	      0.32880160	     21.09260663	      1.82911960	     -6.36332148	     -3.39076172	      0.06063571	     -3.44741792	     -0.26742434	    -14.05429037	      6.33169654	     -4.59937053	    -12.46853881	      9.80125844	      4.71816182	      0.03981542	      5.77677004	     -0.08353373	     -3.33424229
      0.60000000	     -0.86648132	      2.33436680	     -1.46559622	     -0.74415346	      1.04994677	      0.32886294	     20.97545759	      1.86913583	     -6.22979426	     -3.82521338	     -0.04937399	     -3.47999679	     -0.26738062	    -14.00233397	      6.26373662	     -4.62629081	    -13.28432288	      9.69978369	      4.73236329	      0.04619236	      5.76963004	      0.04624568	     -3.34857598
      0.60416667	     -0.87909003	      2.27127084	     -1.68470441	     -0.73817286	      1.04985793	      0.32951291	     20.90306442	      2.06102575	     -5.76862328	     -4.21509589	     -0.79796085	     -3.94654610	     -0.27143234	    -13.88030798	      6.14620460	     -5.20245992	    -14.10025727	      9.13647435	      5.18222551	      0.10633448	      5.72781493	      0.15684249	     -3.37835047
      0.60833333	     -0.86672966	      2.18544218	     -1.77933765	     -0.73214963	      1.04992141	      0.33011647	     20.73873401	      2.24400904	     -5.17935582	     -4.51079481	     -1.36793285	     -4.70001720	     -0.26960817	    -13.75113405	      5.95275568	     -5.65486242	    -15.01278977	      8.75297602	      5.67754054	      0.22083258	      5.71754606	      0.27345428	     -3.36444246
      0.61250000	     -0.82671235	      2.06663810	     -1.83877173	     -0.72601596	      1.05008168	      0.33067713	     20.51305013	      2.44201940	     -4.56512156	     -4.76789071	     -1.88519633	     -5.42913056	     -0.25759535	    -13.64472309	      5.71004451	     -6.01936006	    -15.95354991	      8.45741845	      6.11092478	      0.42130140	      5.81365901	      0.32370689	     -3.29878950
      0.61666667	     -0.79963489	      2.00992801	     -1.92614774	     -0.72009520	      1.05022738	      0.33100352	     20.40619527	      2.54080551	     -4.39775706	     -5.21808170	     -2.21831205	     -5.61564122	     -0.25162404	    -13.47759047	      5.56897292	     -6.32530080	    -16.94169025	      8.02845747	      6.29195283	      0.51340566	      5.74031631	      0.46621862	     -3.31410238
      0.62083333	     -0.79340366	      1.89505689	     -1.89049850	     -0.71396923	      1.05044812	      0.33125892	     20.25085221	      2.66580429	     -4.18798108	     -5.56626710	     -2.46325182	     -5.68155690	     -0.24808702	    -13.26460093	      5.31497943	     -6.55741522	    -18.00268763	      7.64968669	      6.40090243	      0.56203743	      5.68422764	      0.56471198	     -3.32492406
      0.62500000	     -0.71996945	      1.81582530	     -2.08472788	     -0.70798355	      1.05067305	      0.33182313	     20.09047177	      2.82373151	     -3.84219374	     -6.00452987	     -3.01125417	     -6.10106244	     -0.24375604	    -13.11083051	      5.14560986	     -7.01982543	    -19.02530113	      6.77391006	      6.84287190	      0.69479631	      5.75272154	      0.70803579	     -3.34882639
      0.62916667	     -0.67665748	      1.67585887	     -2.16627963	     -0.70190622	      1.05094541	      0.33263335	     19.85825316	      3.05773783	     -3.09094382	     -6.26783294	     -3.56923586	     -7.29720627	     -0.22076593	    -12.88013570	      4.82487100	     -7.47751036	    -20.18143770	      6.31119160	      7.27852795	      1.19142919	      5.74164039	      0.83474290	     -3.28060496
      0.63333333	     -0.61896073	      1.56842753	     -2.22538425	     -0.69588985	      1.05126776	      0.33295950	     19.71033966	      3.18091421	     -3.03102010	     -6.73813907	     -3.80138078	     -7.31616926	     -0.21264521	    -12.63759107	      4.58382479	     -7.77561071	    -21.34385715	      5.59158617	      7.49849583	      1.32532170	      5.69290134	      0.97536573	     -3.29318474
      0.63750000	     -0.56849471	      1.44150648	     -2.28109911	     -0.68984327	      1.05160684	      0.33334699	     19.54305098	      3.32969268	     -2.83865506	     -7.16240120	     -4.03418217	     -7.47222056	     -0.20528506	    -12.36081948	      4.30344889	     -8.07321607	    -22.54933973	      4.76292177	      7.73084743	      1.49007905	      5.67513831	      1.14472916	     -3.31024096
      0.64166667	     -0.50964023	      1.28206931	     -2.31096378	     -0.68375118	      1.05199016	      0.33383114	     19.32904346	      3.51812043	     -2.52049447	     -7.52529939	     -4.28271560	     -7.81585942	     -0.19586356	    -12.06661196	      3.95777566	     -8.35578691	    -23.80177242	      3.87477804	      7.94985310	      1.78048754	      5.71014116	      1.26534925	     -3.29976093
      0.64583333	     -0.47839791	      1.13319025	     -2.32840247	     -0.67777315	      1.05232806	      0.33417557	     19.19013897	      3.67283036	     -2.46119946	     -7.97771804	     -4.37588408	     -7.87403374	     -0.19266692	    -11.69548051	      3.62714662	     -8.60014113	    -25.14842500	      3.36367620	      8.03897429	      1.86775475	      5.55466145	      1.45660691	     -3.32487666
